<?xml version="1.0" encoding="utf-8"?>
<!-- Generator: Adobe Illustrator 19.1.0, SVG Export Plug-In . SVG Version: 6.00 Build 0)  -->
<!DOCTYPE svg PUBLIC "-//W3C//DTD SVG 1.1//EN" "http://www.w3.org/Graphics/SVG/1.1/DTD/svg11.dtd">
<svg version="1.1" id="Icon" xmlns="http://www.w3.org/2000/svg" xmlns:xlink="http://www.w3.org/1999/xlink" x="0px" y="0px"
	 viewBox="0 0 128 128" style="enable-background:new 0 0 128 128;" xml:space="preserve">
<style type="text/css">
	.st0{fill:#FFFFFF;}
</style>
<path id="Frame" class="st0" d="M64,8l56,56l-56,56L8,64L64,8 M64,0L0,64l64,64l64-64L64,0L64,0z"/>
<path id="LinkedIn" class="st0" d="M88.3,66.1v16.7h-9.7V67.2c0-3.9-1.4-6.6-4.9-6.6c-2.7,0-4.3,1.8-5,3.5c-0.3,0.6-0.3,1.5-0.3,2.4
	v16.3h-9.7c0,0,0.1-26.4,0-29.2h9.7v4.1c0,0,0,0.1-0.1,0.1h0.1v-0.1c1.3-2,3.6-4.8,8.7-4.8C83.5,52.9,88.3,57.1,88.3,66.1z
	 M48.6,39.5c-3.3,0-5.5,2.2-5.5,5s2.1,5,5.4,5h0.1c3.4,0,5.5-2.2,5.5-5C53.9,41.7,51.9,39.5,48.6,39.5z M43.6,82.8h9.7V53.6h-9.7
	V82.8z"/>
</svg>
