<?xml version="1.0" encoding="utf-8"?>
<!-- Generator: Adobe Illustrator 19.1.0, SVG Export Plug-In . SVG Version: 6.00 Build 0)  -->
<!DOCTYPE svg PUBLIC "-//W3C//DTD SVG 1.1//EN" "http://www.w3.org/Graphics/SVG/1.1/DTD/svg11.dtd">
<svg version="1.1" id="Icon" xmlns="http://www.w3.org/2000/svg" xmlns:xlink="http://www.w3.org/1999/xlink" x="0px" y="0px"
	 viewBox="0 0 128 128" style="enable-background:new 0 0 128 128;" xml:space="preserve">
<style type="text/css">
	.st0{fill:#FFFFFF;}
</style>
<path id="Frame_1_" class="st0" d="M64,8l56,56l-56,56L8,64L64,8 M64,0L0,64l64,64l64-64L64,0L64,0z"/>
<path id="Twitter" class="st0" d="M88.7,48.6c-1.8,0.8-3.8,1.4-5.8,1.6c2.1-1.2,3.7-3.3,4.5-5.6c-2,1.1-4.2,2-6.4,2.4
	c-1.9-2-4.5-3.2-7.4-3.2c-5.6,0-10.1,4.6-10.1,10.1c0,0.8,0.1,1.6,0.2,2.3c-8.4-0.4-15.9-4.5-20.9-10.6c-0.9,1.5-1.4,3.3-1.4,5.1
	c0,3.5,1.8,6.6,4.5,8.4c-1.6-0.1-3.2-0.5-4.6-1.3V58c0,4.9,3.5,9,8.2,10c-0.8,0.2-1.7,0.3-2.7,0.3c-0.7,0-1.3-0.1-1.9-0.2
	c1.3,4,5.1,6.9,9.5,7c-3.4,2.7-7.8,4.3-12.6,4.3c-0.8,0-1.6-0.1-2.4-0.2c4.5,2.9,9.8,4.6,15.5,4.6c18.6,0,28.8-15.4,28.8-28.8v-1.3
	C85.6,52.5,87.4,50.7,88.7,48.6z"/>
</svg>
